<svg id="visual" viewBox="0 0 1920 1080" width="1920" height="1080" xmlns="http://www.w3.org/2000/svg" xmlns:xlink="http://www.w3.org/1999/xlink" version="1.1"><rect x="0" y="0" width="1920" height="1080" fill="#140021"></rect><path d="M0 448L274 448L274 511L549 511L549 549L823 549L823 675L1097 675L1097 451L1371 451L1371 622L1646 622L1646 643L1920 643L1920 510L1920 1081L1920 1081L1646 1081L1646 1081L1371 1081L1371 1081L1097 1081L1097 1081L823 1081L823 1081L549 1081L549 1081L274 1081L274 1081L0 1081Z" fill="#9900ff"></path><path d="M0 683L274 683L274 674L549 674L549 669L823 669L823 652L1097 652L1097 828L1371 828L1371 672L1646 672L1646 686L1920 686L1920 778L1920 1081L1920 1081L1646 1081L1646 1081L1371 1081L1371 1081L1097 1081L1097 1081L823 1081L823 1081L549 1081L549 1081L274 1081L274 1081L0 1081Z" fill="#7700c6"></path><path d="M0 882L274 882L274 896L549 896L549 888L823 888L823 981L1097 981L1097 964L1371 964L1371 806L1646 806L1646 898L1920 898L1920 966L1920 1081L1920 1081L1646 1081L1646 1081L1371 1081L1371 1081L1097 1081L1097 1081L823 1081L823 1081L549 1081L549 1081L274 1081L274 1081L0 1081Z" fill="#560090"></path></svg>